<svg width="64" height="64" viewBox="0 0 64 64" fill="none" xmlns="http://www.w3.org/2000/svg">
  <rect width="64" height="64" rx="12" fill="#FEF7FF"/>
  
  <!-- AI Brain -->
  <path d="M32 12C24 12 18 18 18 26C18 34 24 40 32 40C40 40 46 34 46 26C46 18 40 12 32 12Z" fill="#E9D5FF" stroke="#A855F7" stroke-width="2"/>
  
  <!-- Brain connections -->
  <path d="M26 20C26 18 28 16 30 16C32 16 34 18 34 20" stroke="#A855F7" stroke-width="1.5" stroke-linecap="round"/>
  <path d="M30 24C30 22 32 20 34 20C36 20 38 22 38 24" stroke="#A855F7" stroke-width="1.5" stroke-linecap="round"/>
  <path d="M34 28C34 26 36 24 38 24C40 24 42 26 42 28" stroke="#A855F7" stroke-width="1.5" stroke-linecap="round"/>
  
  <!-- Vietnamese flag colors -->
  <rect x="20" y="44" width="24" height="8" fill="#DA251D"/>
  <path d="M20 44L32 48L44 44L44 52L32 48L20 52Z" fill="#FFFF00"/>
  
  <!-- AI Circuit patterns -->
  <circle cx="24" cy="16" r="2" fill="#10B981"/>
  <circle cx="40" cy="16" r="2" fill="#10B981"/>
  <circle cx="24" cy="36" r="2" fill="#10B981"/>
  <circle cx="40" cy="36" r="2" fill="#10B981"/>
  
  <!-- Connection lines -->
  <path d="M24 18L40 18" stroke="#10B981" stroke-width="1" stroke-dasharray="2 2"/>
  <path d="M24 34L40 34" stroke="#10B981" stroke-width="1" stroke-dasharray="2 2"/>
  
  <!-- Speech bubble -->
  <path d="M48 32C48 28 44 24 40 24H36C32 24 28 28 28 32V36C28 40 32 44 36 44H40C44 44 48 40 48 36V32Z" fill="#F3E8FF" stroke="#A855F7" stroke-width="1"/>
  <path d="M36 44L32 48L36 44" fill="#F3E8FF"/>
  
  <!-- AI text -->
  <text x="32" y="38" text-anchor="middle" font-family="Arial" font-size="8" fill="#A855F7" font-weight="bold">AI</text>
</svg>
