<svg width="320" height="220" viewBox="0 0 320 220" fill="none" xmlns="http://www.w3.org/2000/svg">
  <defs>
    <linearGradient id="envelope" x1="0%" y1="0%" x2="100%" y2="100%">
      <stop offset="0%" style="stop-color:#FFCCF2;stop-opacity:0.8" />
      <stop offset="100%" style="stop-color:#977DFF;stop-opacity:0.6" />
    </linearGradient>
    <linearGradient id="phone" x1="0%" y1="0%" x2="100%" y2="100%">
      <stop offset="0%" style="stop-color:#F2E6EE;stop-opacity:0.8" />
      <stop offset="100%" style="stop-color:#FFCCF2;stop-opacity:0.6" />
    </linearGradient>
    <linearGradient id="location" x1="0%" y1="0%" x2="100%" y2="100%">
      <stop offset="0%" style="stop-color:#977DFF;stop-opacity:0.8" />
      <stop offset="100%" style="stop-color:#0033FF;stop-opacity:0.6" />
    </linearGradient>
  </defs>
  
  <!-- Envelope -->
  <rect x="80" y="60" width="160" height="100" fill="url(#envelope)" rx="8" stroke="#977DFF" stroke-width="2"/>
  <rect x="90" y="70" width="140" height="80" fill="white" opacity="0.1" rx="6"/>
  
  <!-- Envelope Flap -->
  <path d="M 80 60 L 160 100 L 240 60" stroke="#977DFF" stroke-width="2" fill="none"/>
  
  <!-- Letter Content -->
  <rect x="100" y="80" width="120" height="4" fill="white" opacity="0.8" rx="2"/>
  <rect x="100" y="90" width="100" height="4" fill="white" opacity="0.6" rx="2"/>
  <rect x="100" y="100" width="80" height="4" fill="white" opacity="0.4" rx="2"/>
  <rect x="100" y="110" width="60" height="4" fill="white" opacity="0.3" rx="2"/>
  
  <!-- Phone -->
  <rect x="40" y="140" width="60" height="40" fill="url(#phone)" rx="8"/>
  <rect x="50" y="150" width="40" height="20" fill="white" opacity="0.1" rx="4"/>
  <rect x="55" y="155" width="30" height="10" fill="#977DFF" opacity="0.8" rx="2"/>
  
  <!-- Phone Screen -->
  <rect x="45" y="145" width="50" height="30" fill="#FFCCF2" opacity="0.3" rx="4"/>
  
  <!-- Location Pin -->
  <circle cx="280" cy="140" r="25" fill="url(#location)"/>
  <path d="M 280 140 L 280 165 L 275 160 L 285 160 Z" fill="url(#location)"/>
  <circle cx="280" cy="140" r="15" fill="white" opacity="0.3"/>
  <circle cx="280" cy="140" r="8" fill="#0033FF" opacity="0.8"/>
  
  <!-- Contact Icons -->
  <circle cx="60" cy="50" r="15" fill="#FFCCF2" opacity="0.6"/>
  <text x="60" y="55" text-anchor="middle" fill="#0033FF" font-family="Arial" font-size="10" font-weight="bold">@</text>
  
  <circle cx="260" cy="50" r="15" fill="#977DFF" opacity="0.6"/>
  <text x="260" y="55" text-anchor="middle" fill="white" font-family="Arial" font-size="10" font-weight="bold">📞</text>
  
  <!-- Connection Lines -->
  <line x1="75" y1="50" x2="90" y2="70" stroke="#FFCCF2" stroke-width="2" opacity="0.6"/>
  <line x1="245" y1="50" x2="230" y2="70" stroke="#977DFF" stroke-width="2" opacity="0.6"/>
  
  <!-- Floating Elements -->
  <circle cx="30" cy="30" r="4" fill="#977DFF" opacity="0.6"/>
  <circle cx="290" cy="30" r="4" fill="#977DFF" opacity="0.6"/>
  <circle cx="30" cy="190" r="4" fill="#FFCCF2" opacity="0.6"/>
  <circle cx="290" cy="190" r="4" fill="#FFCCF2" opacity="0.6"/>
  
  <!-- Title -->
  <text x="160" y="25" text-anchor="middle" fill="#0033FF" font-family="Arial" font-size="16" font-weight="bold">Liên hệ</text>
  <text x="160" y="200" text-anchor="middle" fill="#0600AF" font-family="Arial" font-size="12">Kết nối với chúng tôi</text>
</svg>










