<svg width="64" height="64" viewBox="0 0 64 64" fill="none" xmlns="http://www.w3.org/2000/svg">
  <rect width="64" height="64" rx="12" fill="#F0FDF4"/>
  
  <!-- Building structure -->
  <rect x="12" y="20" width="40" height="32" fill="#DCFCE7" stroke="#22C55E" stroke-width="2"/>
  
  <!-- Server racks -->
  <rect x="16" y="24" width="8" height="24" fill="#22C55E" stroke="#16A34A" stroke-width="1"/>
  <rect x="26" y="24" width="8" height="24" fill="#22C55E" stroke="#16A34A" stroke-width="1"/>
  <rect x="36" y="24" width="8" height="24" fill="#22C55E" stroke="#16A34A" stroke-width="1"/>
  
  <!-- Server slots -->
  <rect x="17" y="26" width="6" height="2" fill="#16A34A"/>
  <rect x="17" y="30" width="6" height="2" fill="#16A34A"/>
  <rect x="17" y="34" width="6" height="2" fill="#16A34A"/>
  <rect x="17" y="38" width="6" height="2" fill="#16A34A"/>
  <rect x="17" y="42" width="6" height="2" fill="#16A34A"/>
  
  <rect x="27" y="26" width="6" height="2" fill="#16A34A"/>
  <rect x="27" y="30" width="6" height="2" fill="#16A34A"/>
  <rect x="27" y="34" width="6" height="2" fill="#16A34A"/>
  <rect x="27" y="38" width="6" height="2" fill="#16A34A"/>
  <rect x="27" y="42" width="6" height="2" fill="#16A34A"/>
  
  <rect x="37" y="26" width="6" height="2" fill="#16A34A"/>
  <rect x="37" y="30" width="6" height="2" fill="#16A34A"/>
  <rect x="37" y="34" width="6" height="2" fill="#16A34A"/>
  <rect x="37" y="38" width="6" height="2" fill="#16A34A"/>
  <rect x="37" y="42" width="6" height="2" fill="#16A34A"/>
  
  <!-- Network connections -->
  <circle cx="32" cy="16" r="4" fill="#3B82F6" stroke="#1D4ED8" stroke-width="1"/>
  <path d="M32 20L32 24" stroke="#3B82F6" stroke-width="2" stroke-linecap="round"/>
  
  <!-- Data flow lines -->
  <path d="M20 16L28 16" stroke="#3B82F6" stroke-width="1" stroke-dasharray="2 2"/>
  <path d="M36 16L44 16" stroke="#3B82F6" stroke-width="1" stroke-dasharray="2 2"/>
  
  <!-- Status indicators -->
  <circle cx="18" cy="18" r="2" fill="#10B981"/>
  <circle cx="46" cy="18" r="2" fill="#10B981"/>
  
  <!-- Cooling vents -->
  <rect x="14" y="52" width="4" height="2" fill="#6B7280"/>
  <rect x="22" y="52" width="4" height="2" fill="#6B7280"/>
  <rect x="30" y="52" width="4" height="2" fill="#6B7280"/>
  <rect x="38" y="52" width="4" height="2" fill="#6B7280"/>
  <rect x="46" y="52" width="4" height="2" fill="#6B7280"/>
</svg>
