<?xml version="1.0" encoding="UTF-8"?>
<svg width="24" height="24" viewBox="0 0 24 24" xmlns="http://www.w3.org/2000/svg">
  <path fill="#4285F4" d="M23.49 12.27c0-.82-.07-1.6-.21-2.35H12v4.44h6.48c-.28 1.54-1.12 2.84-2.39 3.72v3.09h3.87c2.27-2.09 3.56-5.18 3.56-8.9z"/>
  <path fill="#34A853" d="M12 24c3.24 0 5.96-1.07 7.95-2.89l-3.87-3.09c-1.08.72-2.47 1.15-4.08 1.15-3.14 0-5.8-2.12-6.75-4.97H1.26v3.12C3.24 21.3 7.31 24 12 24z"/>
  <path fill="#FBBC05" d="M5.25 14.2c-.24-.72-.38-1.49-.38-2.2s.14-1.48.38-2.2V6.68H1.26A11.96 11.96 0 000 12c0 1.94.46 3.77 1.26 5.32l3.99-3.12z"/>
  <path fill="#EA4335" d="M12 4.77c1.76 0 3.33.6 4.57 1.77l3.42-3.42C17.95 1.26 15.23 0 12 0 7.31 0 3.24 2.7 1.26 6.68l3.99 3.12C6.2 6.95 8.86 4.77 12 4.77z"/>
</svg>

