<svg width="64" height="64" viewBox="0 0 64 64" fill="none" xmlns="http://www.w3.org/2000/svg">
  <rect width="64" height="64" rx="12" fill="#F0FDF4"/>
  
  <!-- Envelope -->
  <path d="M16 24L32 36L48 24V40C48 42 46 44 44 44H20C18 44 16 42 16 40V24Z" fill="#DCFCE7" stroke="#22C55E" stroke-width="2"/>
  
  <!-- Envelope flap -->
  <path d="M16 24L32 36L48 24" fill="none" stroke="#22C55E" stroke-width="2"/>
  
  <!-- Lock icon -->
  <rect x="28" y="28" width="8" height="8" rx="1" fill="#10B981" stroke="#047857" stroke-width="1"/>
  <circle cx="32" cy="30" r="1" fill="#047857"/>
  
  <!-- Security shield -->
  <path d="M32 20L40 24V28C40 32 36 36 32 38C28 36 24 32 24 28V24L32 20Z" fill="#FEE2E2" stroke="#FCA5A5" stroke-width="1"/>
  
  <!-- Checkmark -->
  <path d="M30 34L34 38L38 30" stroke="#10B981" stroke-width="2" stroke-linecap="round" stroke-linejoin="round"/>
  
  <!-- Encryption symbols -->
  <circle cx="24" cy="16" r="2" fill="#3B82F6"/>
  <circle cx="40" cy="16" r="2" fill="#3B82F6"/>
  <path d="M24 18L40 18" stroke="#3B82F6" stroke-width="1" stroke-dasharray="2 2"/>
  
  <!-- Data flow arrows -->
  <path d="M20 48L28 48" stroke="#22C55E" stroke-width="2" stroke-linecap="round" marker-end="url(#arrowhead)"/>
  <path d="M36 48L44 48" stroke="#22C55E" stroke-width="2" stroke-linecap="round" marker-end="url(#arrowhead)"/>
  
  <!-- Arrow marker definition -->
  <defs>
    <marker id="arrowhead" markerWidth="10" markerHeight="7" refX="9" refY="3.5" orient="auto">
      <polygon points="0 0, 10 3.5, 0 7" fill="#22C55E"/>
    </marker>
  </defs>
</svg>
