<?xml version="1.0" encoding="UTF-8"?>
<svg width="800" height="520" viewBox="0 0 800 520" fill="none" xmlns="http://www.w3.org/2000/svg">
  <defs>
    <linearGradient id="g1" x1="0" y1="0" x2="1" y2="1">
      <stop offset="0%" stop-color="#977DFF"/>
      <stop offset="50%" stop-color="#0033FF"/>
      <stop offset="100%" stop-color="#0600AF"/>
    </linearGradient>
    <linearGradient id="g2" x1="0" y1="0" x2="0" y2="1">
      <stop offset="0%" stop-color="#E8F0FF"/>
      <stop offset="100%" stop-color="#F5F8FF"/>
    </linearGradient>
    <filter id="shadow" x="-10%" y="-10%" width="120%" height="120%">
      <feDropShadow dx="0" dy="8" stdDeviation="12" flood-color="#00003D" flood-opacity="0.2"/>
    </filter>
  </defs>
  <rect width="800" height="520" rx="24" fill="url(#g2)"/>

  <!-- Sidebar -->
  <rect x="60" y="60" width="140" height="400" rx="14" fill="#ffffff" filter="url(#shadow)"/>
  <rect x="80" y="90" width="100" height="16" rx="8" fill="#E6E8F0"/>
  <rect x="80" y="130" width="80" height="12" rx="6" fill="#E6E8F0"/>
  <rect x="80" y="160" width="90" height="12" rx="6" fill="#E6E8F0"/>
  <rect x="80" y="190" width="70" height="12" rx="6" fill="#E6E8F0"/>

  <!-- Topbar -->
  <rect x="220" y="60" width="520" height="60" rx="14" fill="#ffffff" filter="url(#shadow)"/>
  <rect x="240" y="82" width="180" height="16" rx="8" fill="#E6E8F0"/>
  <rect x="640" y="80" width="80" height="20" rx="10" fill="url(#g1)"/>

  <!-- Content cards -->
  <rect x="220" y="140" width="520" height="320" rx="18" fill="#ffffff" filter="url(#shadow)"/>
  <rect x="250" y="170" width="210" height="140" rx="12" fill="url(#g1)" opacity="0.15"/>
  <rect x="480" y="170" width="210" height="140" rx="12" fill="#F8F8FF"/>
  <rect x="250" y="330" width="440" height="24" rx="12" fill="#E6E8F0"/>
  <rect x="250" y="370" width="360" height="14" rx="7" fill="#E6E8F0"/>
  <rect x="250" y="395" width="300" height="14" rx="7" fill="#E6E8F0"/>

  <!-- Accent blobs -->
  <circle cx="720" cy="120" r="36" fill="url(#g1)" opacity="0.25"/>
  <circle cx="130" cy="440" r="30" fill="#0033FF" opacity="0.18"/>
</svg>


